<svg width="176" height="45" viewBox="0 0 176 45" fill="none" xmlns="http://www.w3.org/2000/svg">
<g clip-path="url(#clip0_102_12)">
<path d="M37.0343 15.376H44.8811V22.6187C44.8217 34.9076 34.7754 45 22.4108 45C10.0462 45 0 34.9076 0 22.5594C0 10.2111 10.0462 0.1781 22.4108 0.1781L45 0V8.01451H31.5059V25.8245H23.7781V7.95514H22.4108C14.3263 7.95514 7.78732 14.4855 7.78732 22.5594C7.78732 30.6332 14.3263 37.1636 22.4108 37.1636C30.4954 37.1636 37.0343 30.6332 37.0343 22.5594V15.376Z" fill="url(#paint0_linear_102_12)"/>
<g filter="url(#filter0_d_102_12)">
<path d="M68.2414 38.6103C64.4881 38.6103 61.5065 37.4595 59.2965 35.1578C57.0988 32.8561 56 29.7357 56 25.7966C56 21.8803 57.105 18.7713 59.315 16.4697C61.525 14.1566 64.5005 13 68.2414 13C71.2786 13 73.8405 13.7958 75.927 15.3875C78.0135 16.9678 79.2296 19.0462 79.5753 21.6227H75.464C75.0936 20.031 74.2479 18.7599 72.9268 17.8094C71.6181 16.8476 70.0563 16.3666 68.2414 16.3666C65.8092 16.3666 63.8646 17.2254 62.4077 18.9431C60.9632 20.6493 60.241 22.9338 60.241 25.7966C60.241 28.6937 60.9632 30.9953 62.4077 32.7016C63.8523 34.3963 65.803 35.2437 68.2599 35.2437C70.1119 35.2437 71.6675 34.8257 72.9268 33.9898C74.1985 33.1539 75.0442 31.9859 75.464 30.4858H79.5938C79.0876 33.0508 77.8345 35.049 75.8344 36.4804C73.8466 37.9003 71.3156 38.6103 68.2414 38.6103Z" fill="white"/>
<path d="M83.4891 38.1981V13.4122H87.4522V23.1514H87.5448C88.0881 22.0864 88.8844 21.2677 89.9339 20.6951C90.9833 20.1111 92.2426 19.8191 93.7118 19.8191C95.8354 19.8191 97.5022 20.426 98.7121 21.6398C99.9344 22.8536 100.546 24.4911 100.546 26.5523V38.1981H96.5268V27.2738C96.5268 25.9225 96.1626 24.8748 95.4342 24.1304C94.7181 23.3861 93.6625 23.014 92.2673 23.014C90.7981 23.014 89.6314 23.4491 88.7671 24.3194C87.9152 25.1782 87.4893 26.3233 87.4893 27.7547V38.1981H83.4891Z" fill="white"/>
<path d="M111.719 35.57C113.126 35.57 114.305 35.175 115.256 34.3849C116.219 33.5833 116.701 32.5985 116.701 31.4305V30.0048L111.904 30.2797C110.707 30.3598 109.781 30.6346 109.126 31.1041C108.484 31.5622 108.163 32.1805 108.163 32.9592C108.163 33.7493 108.484 34.3849 109.126 34.8658C109.781 35.3353 110.645 35.57 111.719 35.57ZM110.608 38.5072C108.694 38.5072 107.132 38.0034 105.922 36.9957C104.725 35.988 104.126 34.6769 104.126 33.0623C104.126 31.482 104.756 30.2281 106.015 29.3006C107.274 28.3616 109.058 27.8349 111.367 27.7203L116.701 27.4283V26.037C116.701 25.0293 116.355 24.2449 115.664 23.6838C114.972 23.1113 114.015 22.825 112.793 22.825C111.657 22.825 110.731 23.0598 110.015 23.5293C109.311 23.9987 108.867 24.6457 108.682 25.4702H104.904C105.015 23.7984 105.793 22.4357 107.237 21.3822C108.682 20.3287 110.583 19.8019 112.941 19.8019C115.299 19.8019 117.176 20.3401 118.571 21.4165C119.979 22.4929 120.682 23.9358 120.682 25.745V38.1981H116.849V35.2265H116.756C116.201 36.2228 115.355 37.0186 114.219 37.6141C113.096 38.2095 111.892 38.5072 110.608 38.5072Z" fill="white"/>
<path d="M125.059 38.1981V20.1283H128.874V23.2029H128.967C129.288 22.1494 129.862 21.3249 130.689 20.7295C131.516 20.134 132.504 19.8363 133.652 19.8363C134.035 19.8363 134.492 19.8821 135.023 19.9737V23.4262C134.665 23.2888 134.066 23.2201 133.226 23.2201C131.942 23.2201 130.924 23.5922 130.17 24.3366C129.43 25.0809 129.059 26.0943 129.059 27.3768V38.1981H125.059Z" fill="white"/>
<path d="M145.437 35.1922C147.005 35.1922 148.258 34.6425 149.196 33.5432C150.147 32.4439 150.622 30.9667 150.622 29.1116C150.622 27.2566 150.147 25.7679 149.196 24.6457C148.258 23.5235 147.005 22.9624 145.437 22.9624C143.893 22.9624 142.659 23.5178 141.733 24.6286C140.819 25.7393 140.362 27.2337 140.362 29.1116C140.362 30.9896 140.819 32.4725 141.733 33.5604C142.659 34.6482 143.893 35.1922 145.437 35.1922ZM145.474 45C143.202 45 141.276 44.4962 139.696 43.4885C138.128 42.4808 137.22 41.1868 136.973 39.6065H140.992C141.276 40.3623 141.832 40.9692 142.659 41.4273C143.498 41.8853 144.486 42.1143 145.622 42.1143C147.165 42.1143 148.381 41.7364 149.27 40.9807C150.159 40.2364 150.604 39.2401 150.604 37.9919V35.0204H150.53C149.974 36.0166 149.147 36.8068 148.048 37.3908C146.961 37.9748 145.733 38.2668 144.363 38.2668C141.906 38.2668 139.943 37.4423 138.473 35.7933C137.004 34.1329 136.27 31.9 136.27 29.0945C136.27 26.2546 137.004 24.0045 138.473 22.3441C139.955 20.6722 141.949 19.8363 144.455 19.8363C145.826 19.8363 147.054 20.1397 148.141 20.7466C149.227 21.3421 150.067 22.1666 150.659 23.2201H150.733V20.1283H154.622V37.8717C154.622 40.0245 153.789 41.7479 152.122 43.0419C150.468 44.3473 148.252 45 145.474 45Z" fill="white"/>
<path d="M170.611 24.0961C169.734 23.2258 168.605 22.7907 167.222 22.7907C165.839 22.7907 164.691 23.2315 163.777 24.1133C162.864 24.9835 162.357 26.1115 162.259 27.497H172C171.95 26.1 171.487 24.9664 170.611 24.0961ZM171.981 32.8905H175.778C175.494 34.5509 174.58 35.9079 173.037 36.9614C171.494 38.0149 169.611 38.5416 167.388 38.5416C164.536 38.5416 162.289 37.7114 160.647 36.051C159.018 34.3791 158.203 32.1118 158.203 29.2491C158.203 26.4092 159.018 24.1247 160.647 22.3956C162.289 20.6665 164.481 19.8019 167.222 19.8019C169.913 19.8019 172.049 20.6207 173.63 22.2582C175.21 23.8842 176 26.0714 176 28.8196V30.0907H162.24V30.314C162.24 31.8943 162.715 33.1596 163.666 34.11C164.617 35.0605 165.888 35.5357 167.481 35.5357C168.605 35.5357 169.568 35.2952 170.37 34.8143C171.173 34.3333 171.71 33.6921 171.981 32.8905Z" fill="white"/>
</g>
</g>
<defs>
<filter id="filter0_d_102_12" x="49.3333" y="8.00001" width="133.333" height="45.3333" filterUnits="userSpaceOnUse" color-interpolation-filters="sRGB">
<feFlood flood-opacity="0" result="BackgroundImageFix"/>
<feColorMatrix in="SourceAlpha" type="matrix" values="0 0 0 0 0 0 0 0 0 0 0 0 0 0 0 0 0 0 127 0" result="hardAlpha"/>
<feOffset dy="1.66667"/>
<feGaussianBlur stdDeviation="3.33333"/>
<feComposite in2="hardAlpha" operator="out"/>
<feColorMatrix type="matrix" values="0 0 0 0 0.12549 0 0 0 0 0.380392 0 0 0 0 0.603922 0 0 0 0.25 0"/>
<feBlend mode="normal" in2="BackgroundImageFix" result="effect1_dropShadow_102_12"/>
<feBlend mode="normal" in="SourceGraphic" in2="effect1_dropShadow_102_12" result="shape"/>
</filter>
<linearGradient id="paint0_linear_102_12" x1="0" y1="22.4931" x2="45.0386" y2="22.4931" gradientUnits="userSpaceOnUse">
<stop stop-color="#50BECE"/>
<stop offset="1" stop-color="#2C71B4"/>
</linearGradient>
<clipPath id="clip0_102_12">
<rect width="176" height="45" fill="white"/>
</clipPath>
</defs>
</svg>
