<svg width="198" height="51" viewBox="0 0 198 51" fill="none" xmlns="http://www.w3.org/2000/svg">
<g clip-path="url(#clip0_37_60)">
<path d="M156.385 36.72L163.274 44.6352H158.796L153.47 38.5356V44.6352H149.759V29.8758H153.47V35.2308L158.705 29.8758H163.093L156.385 36.72ZM45.408 33.864C48.1111 33.864 49.3517 32.5584 49.3517 30.5898C49.3517 28.6212 48.1111 27.3156 45.408 27.3156H40.0523V33.864H45.408ZM45.5291 23.7966C50.1788 23.7966 53.2449 26.2038 53.2449 30.5796C53.2449 34.9554 50.1788 37.3626 45.5291 37.3626H40.0523V44.625H36.1692V23.7966H45.5291ZM62.0098 41.5446C64.1883 41.5446 66.2157 39.9636 66.2157 37.2606C66.2157 34.5576 64.1883 32.9766 62.0098 32.9766C59.8312 32.9766 57.8039 34.5576 57.8039 37.2606C57.8039 39.9636 59.8312 41.5446 62.0098 41.5446ZM62.0098 29.4576C66.0139 29.4576 69.9878 32.079 69.9878 37.2606C69.9878 42.4422 66.0139 45.0636 62.0098 45.0636C58.0056 45.0636 54.0317 42.4422 54.0317 37.2606C54.0317 32.079 58.0056 29.4576 62.0098 29.4576ZM79.4587 41.5446C77.2196 41.5446 75.5755 39.9126 75.5755 37.2606C75.5755 34.6392 77.2801 32.9766 79.4587 32.9766C80.78 32.9766 81.9298 33.5988 82.8476 34.9962L86.0247 33.15C84.9657 30.855 82.6661 29.4576 79.4889 29.4576C75.3436 29.4576 71.8033 32.5584 71.8033 37.2606C71.8033 41.9628 75.162 45.0636 79.4889 45.0636C82.6055 45.0636 84.6934 43.6356 86.1659 41.106L83.0998 39.4128C82.2223 40.647 81.2843 41.5446 79.4587 41.5446ZM118.946 38.2398C118.764 40.5042 118.33 41.004 117.564 41.004C117.039 41.004 116.797 40.9428 116.434 40.851L116.454 44.676C116.454 44.676 116.918 44.8188 117.766 44.8188C120.913 44.8188 122.093 42.7686 122.385 38.3928L122.738 33.2418H126.914V44.6148H130.625V29.8758H119.561L118.946 38.2398ZM112.097 35.292C111.744 33.4458 110.362 32.3136 108.305 32.3136C106.358 32.3136 104.886 33.6192 104.361 35.292H112.097ZM108.426 29.4576C112.602 29.4576 115.547 32.5278 115.547 36.8424V38.148H104.301C104.533 40.4124 106.126 41.8404 108.305 41.8404C110.282 41.8404 111.099 40.9734 112.017 39.8208L114.962 41.31C113.489 43.8396 111.462 45.0636 108.254 45.0636C104.19 45.0636 100.75 41.9424 100.75 37.2606C100.74 32.5788 104.18 29.4576 108.426 29.4576ZM144.06 35.292C143.707 33.4458 142.325 32.3136 140.268 32.3136C138.321 32.3136 136.849 33.6192 136.324 35.292H144.06ZM140.389 29.4576C144.564 29.4576 147.51 32.5278 147.51 36.8424V38.148H136.264C136.496 40.4124 138.089 41.8404 140.268 41.8404C142.245 41.8404 143.062 40.9734 143.979 39.8208L146.925 41.31C145.452 43.8396 143.425 45.0636 140.217 45.0636C136.153 45.0636 132.713 41.9424 132.713 37.2606C132.703 32.5788 136.143 29.4576 140.389 29.4576ZM87.3157 33.15H91.6729V44.6352H95.3846V33.15H99.7418V29.8758H87.3157V33.15ZM170.637 41.5446C172.816 41.5446 174.843 39.9636 174.843 37.2606C174.843 34.5576 172.816 32.9766 170.637 32.9766C168.458 32.9766 166.431 34.5576 166.431 37.2606C166.431 39.9636 168.458 41.5446 170.637 41.5446ZM170.637 29.4576C174.641 29.4576 178.615 32.079 178.615 37.2606C178.615 42.4422 174.641 45.0636 170.637 45.0636C166.633 45.0636 162.659 42.4422 162.659 37.2606C162.659 32.079 166.633 29.4576 170.637 29.4576ZM193.371 29.8656L189.347 40.2084L185.322 29.8656H180.471V44.6046H183.991V35.2716L187.894 44.6046H190.769L194.672 35.2716V44.6046H198.202V29.8656H193.371Z" fill="white"/>
<path d="M24.0759 50.9999H3.50028C2.01763 50.9999 1.14014 49.6535 1.14014 48.4805C1.14014 47.7869 1.42255 47.1545 1.86634 46.7057L10.843 37.6277L24.0759 50.9999Z" fill="#FF4F12"/>
<path d="M3.49996 51.0002C1.9467 51.0002 8.44153e-05 49.7456 8.44153e-05 47.2466V19.268C8.44153e-05 15.4838 -0.191551 12.8318 2.48126 10.1288L12.4967 0.000244141L30.2583 17.993L1.86601 46.706C1.41214 47.165 1.13981 47.7872 1.13981 48.4808C1.13981 49.6538 2.0173 51.0002 3.49996 51.0002Z" fill="#7D929B"/>
</g>
<defs>
<clipPath id="clip0_37_60">
<rect width="198" height="51" fill="white"/>
</clipPath>
</defs>
</svg>
